<svg id="svg" xmlns="http://www.w3.org/2000/svg" xmlns:xlink="http://www.w3.org/1999/xlink" width="500" height="500" viewBox="0, 0, 500,500"><g id="svgg"><path id="path0" d="M168.229 0.168 C 117.724 3.697,73.315 26.107,41.508 64.117 C 9.011 102.951,-5.540 154.290,1.705 204.557 C 15.539 300.536,102.809 367.890,199.253 357.022 C 235.564 352.930,267.764 338.802,296.690 314.271 L 297.678 313.433 313.087 328.843 L 328.496 344.252 326.392 346.410 C 321.296 351.637,319.638 357.542,321.593 363.509 C 322.877 367.430,320.406 364.868,388.839 433.243 L 452.995 497.345 455.208 498.390 C 460.402 500.841,466.291 500.549,470.891 497.611 C 473.163 496.160,496.160 473.163,497.611 470.891 C 500.598 466.214,500.846 459.912,498.243 454.818 C 497.043 452.469,370.655 325.686,367.285 323.452 C 360.643 319.047,352.812 320.150,346.410 326.392 L 344.252 328.496 328.843 313.087 L 313.433 297.678 314.271 296.690 C 338.778 267.793,352.945 235.501,357.021 199.253 C 367.857 102.870,300.410 15.406,204.688 1.713 C 195.119 0.345,176.808 -0.432,168.229 0.168 M191.721 36.603 C 292.321 46.029,351.994 153.062,306.848 243.099 C 266.823 322.922,164.129 346.909,92.839 293.087 C 23.020 240.377,16.602 137.425,79.340 76.563 C 104.964 51.705,136.491 38.146,173.438 36.092 C 176.735 35.909,187.537 36.211,191.721 36.603 M172.697 58.883 C 115.587 61.720,68.050 105.121,59.916 161.849 C 58.675 170.504,58.314 182.811,59.215 185.799 C 61.963 194.920,74.676 195.893,78.726 187.292 L 79.547 185.547 79.727 178.646 C 81.981 92.359,180.770 48.276,245.017 104.889 C 249.181 108.558,250.106 108.984,253.906 108.984 C 259.609 108.984,263.489 105.731,264.345 100.232 C 264.978 96.166,263.576 93.167,259.233 89.298 C 238.479 70.806,212.630 60.257,184.635 58.855 C 179.069 58.576,178.862 58.577,172.697 58.883 " stroke="none" fill="#000000" fill-rule="evenodd"></path></g></svg>